<?xml version="1.0" standalone="no"?>
<!DOCTYPE svg PUBLIC "-//W3C//DTD SVG 20010904//EN"
 "http://www.w3.org/TR/2001/REC-SVG-20010904/DTD/svg10.dtd">
<svg version="1.0" xmlns="http://www.w3.org/2000/svg"
 width="960.000000pt" height="239.000000pt" viewBox="0 0 960.000000 239.000000"
 preserveAspectRatio="xMidYMid meet">

<g transform="translate(0.000000,239.000000) scale(0.100000,-0.100000)"
fill="#000000" stroke="none">
<path d="M4202 1575 c-69 -19 -102 -37 -147 -80 -21 -19 -39 -35 -41 -35 -2 0
-4 25 -4 55 l0 55 -90 0 -90 0 0 -375 0 -375 95 0 95 0 0 243 0 243 33 32 c92
89 261 106 332 32 35 -37 44 -108 45 -357 l0 -193 90 0 90 0 0 278 c0 297 -5
339 -50 403 -52 72 -231 110 -358 74z"/>
<path d="M4985 1574 c-65 -14 -116 -30 -162 -52 l-53 -24 0 -84 c0 -46 2 -84
4 -84 2 0 24 12 50 26 67 38 139 54 239 54 131 0 177 -26 192 -110 l6 -35
-138 -1 c-270 -2 -386 -57 -414 -195 -32 -161 93 -279 296 -279 104 0 207 33
249 79 25 27 30 26 44 -4 24 -52 169 -85 246 -55 25 9 26 13 26 84 l0 74 -45
-1 c-76 -3 -80 6 -82 206 -2 209 -7 243 -39 293 -52 80 -146 115 -304 113 -52
-1 -104 -3 -115 -5z m253 -450 c19 -6 22 -13 22 -55 0 -56 -19 -80 -90 -112
-86 -39 -244 -22 -264 28 -8 21 -8 59 0 80 8 20 54 44 107 55 50 9 193 12 225
4z"/>
<path d="M5889 1561 c-176 -56 -268 -163 -286 -332 -7 -66 10 -166 37 -219
100 -194 455 -252 630 -103 l43 37 -6 -71 c-7 -81 -23 -119 -66 -156 -49 -41
-96 -52 -216 -51 -122 0 -194 17 -282 64 l-53 28 0 -95 0 -94 45 -20 c68 -30
185 -49 303 -49 179 0 295 40 370 125 75 85 76 90 80 538 l3 397 -90 0 -91 0
0 -42 0 -41 -22 20 c-83 75 -270 105 -399 64z m280 -157 c30 -8 69 -30 92 -51
l39 -35 0 -115 0 -116 -35 -32 c-120 -114 -394 -82 -451 52 -21 48 -18 139 6
189 49 101 208 150 349 108z"/>
<path d="M6820 1565 c-35 -8 -89 -27 -120 -42 l-55 -28 -3 -82 c-2 -46 1 -83
6 -83 5 0 29 11 54 25 71 40 160 58 263 53 121 -5 165 -36 165 -116 l0 -27
-133 -1 c-247 -2 -374 -56 -407 -172 -32 -116 20 -223 133 -273 43 -19 70 -23
152 -24 118 0 181 16 240 61 l43 32 22 -30 c12 -16 37 -36 56 -44 38 -16 150
-19 188 -4 25 9 26 13 26 84 l0 75 -50 -1 c-28 -1 -56 4 -63 11 -8 8 -14 75
-17 219 -5 187 -7 211 -27 247 -28 53 -57 79 -118 106 -64 29 -255 37 -355 14z
m298 -444 c9 -5 12 -25 10 -62 -3 -49 -6 -55 -43 -81 -82 -58 -250 -58 -295
-1 -46 58 -8 118 86 139 67 14 223 18 242 5z"/>
<path d="M7868 1565 c-50 -18 -107 -62 -130 -100 l-18 -30 0 63 0 62 -95 0
-95 0 0 -375 0 -375 100 0 100 0 0 246 0 247 34 31 c18 18 51 37 73 44 49 14
172 16 207 2 l26 -10 0 95 c0 93 -1 96 -26 105 -36 14 -132 11 -176 -5z"/>
<path d="M8510 1571 c-48 -15 -87 -40 -123 -80 l-37 -41 0 55 0 55 -95 0 -95
0 0 -375 0 -375 95 0 95 0 0 240 0 239 30 35 c18 20 50 41 77 50 52 18 178 21
217 6 l26 -10 0 95 c0 93 -1 96 -26 105 -29 12 -127 12 -164 1z"/>
<path d="M9025 1566 c-212 -53 -339 -236 -305 -440 33 -206 202 -336 435 -336
281 0 478 208 436 461 -34 210 -197 331 -439 328 -42 0 -99 -6 -127 -13z m253
-175 c161 -82 169 -307 15 -398 -43 -25 -57 -28 -138 -28 -73 0 -98 4 -130 22
-192 103 -155 368 60 424 47 13 150 2 193 -20z"/>
</g>
</svg>
